<svg id="Layer_1" data-name="Layer 1" xmlns="http://www.w3.org/2000/svg" width="538.2" height="535.3" viewBox="0 0 538.2 535.3"><defs><style>.cls-1{fill:#fff;}</style></defs><title>membership</title><path class="cls-1" d="M278.2,1.8A258.8672,258.8672,0,0,1,332,11c20.5,5.7,45.7,15.5,45.7,15.5h0s14.5-9.8,27.8-15.7c6.9-3.1,18.2-8,33.6-8.9a88.3928,88.3928,0,0,1,33.8,4.9,91.8319,91.8319,0,0,1,47,37.7,86.1912,86.1912,0,0,1,12.8,32.3,81.526,81.526,0,0,1-1.1,33c-5.6,23.5-21.6,43-22,43.7h0a9.0644,9.0644,0,0,0-2.2,3.8,8.1261,8.1261,0,0,0,.9,4.8,243.2567,243.2567,0,0,1,18.4,65.8c.9,6.9,1.9,13.8,2.8,20.7V280a31.1666,31.1666,0,0,0-.9,4.4c-2.9,41.1-14.7,79.6-36.3,114.6Q429.9,501,312.1,523.3c-9.9,1.8-19.9,2.7-29.9,4.1H251.4a17.729,17.729,0,0,0-4-.8c-27.7-1.8-54.5-7.7-79.9-18.7C80.2,469.7,26.9,403.9,8.3,310.4c-2-10-2.8-20.2-4.2-30.3V249.3a31.1666,31.1666,0,0,0,.9-4.4c2.2-32,9.8-62.8,24-91.6,20.1-40.7,46.4-73.5,78.8-98.1,48.7-37,49.1-37.2,113.2-49C250.6.7,273.2,1.5,278.2,1.8Zm90.5,39.5C276.6-4,139,14.6,62.8,127.3-10.7,236,19.2,369.3,94.4,439.4c.8-2.4,1.4-4.7,2.2-6.9,18.6-55,53.2-95.5,107.1-118.6,3.3-1.4,5.7-1.2,8.9.7,36,21.2,72.2,21.3,108.3.1,3.2-1.9,5.6-2.2,8.9-.7,49.2,20.9,82.5,57.1,102.3,106.4,2.6,6.4,4.6,13,7,20.1,41.5-41.7,65.8-91,72.4-148.8,4.9-42.7-1.5-83.9-18.4-123.6-44,26.5-88.3,12.9-112.6-11a89.93,89.93,0,0,1-26-48.5C350.1,84.3,355.3,61.9,368.7,41.3ZM471.2,64.2c-1.6-14.5-9.9-24.3-21.6-25.1-7.8-.5-15.7-1.2-22.8,3.7-7.6,5.3-10.6,13-11.5,21.6-14.9,1.2-24.6,9.9-25.3,22.5-1.2,21.5,5.2,30.1,25.2,33.6,2.4,16.1,10.7,24.4,23.9,25.2,19.6,1.2,30.4-6.4,32.6-25.3,15.6-2.3,26.3-10.7,25-31.6C496,75.4,487.9,66.9,471.2,64.2ZM180.7,227.4c-.1,47.5,38.5,86.4,85.8,86.5a86.4226,86.4226,0,0,0,86.6-86.2c.1-47.3-38.7-86.2-86.1-86.2S180.8,180.1,180.7,227.4ZM432.1,121c.1,5.4,2.9,8.1,8.3,8.2,1.7.1,3.4,0,5.1,0,6.8-.1,9.2-2.4,9.3-9.2.1-5.4,0-10.8,0-16a11.6272,11.6272,0,0,1,1.8-.4c4.4,0,8.9,0,13.3-.1,8-.1,10.3-2.6,10.3-11,0-8.9-2.2-11.4-10.4-11.5H454.5V65.4c-.1-7.4-2.8-10-10.3-10-9.6,0-12.1,2-12.2,10.2-.1,5.1,0,10.1,0,15.5-6.3,0-11.9-.1-17.5,0-5.4.2-8,2.9-8.2,8.3a52.2948,52.2948,0,0,0,0,5.6c.1,5.6,2.8,8.4,8.6,8.5,5.4.1,10.9,0,17.1,0C432.1,109.7,432,115.4,432.1,121Z"/></svg>