<svg id="Layer_1" data-name="Layer 1" xmlns="http://www.w3.org/2000/svg" width="45" height="61.7" viewBox="0 0 45 61.7"><defs><style>.cls-1{fill:#fff;}</style></defs><title>volunteer</title><path class="cls-1" d="M30,61.7H13.9c0-2.7-.1-5.4,0-8.1a3.1,3.1,0,0,0-1.5-3.2,12.0156,12.0156,0,0,1-2.6-2.9A12.294,12.294,0,0,1,8.4,45C7.3,42.7,4.3,36.8,0,28.6c.8-1.5,1.7-2.2,2.8-1.8a7.8206,7.8206,0,0,1,2.6,1.7c1.3,1.4,2.3,2.9,3.5,4.3l.3-.1V9.2a5.8445,5.8445,0,0,1,.2-1.8,2.9815,2.9815,0,0,1,1.2-1.7,2.6634,2.6634,0,0,1,3.7.9,3.1665,3.1665,0,0,1,.4,1.6v15a.7581.7581,0,0,0,.2.4.6012.6012,0,0,0,.4.1c.2-.1.4-.2.4-.4h0V3A2.6418,2.6418,0,0,1,18,0a2.5367,2.5367,0,0,1,1.2.2,2.4,2.4,0,0,1,1.2.7A2.8629,2.8629,0,0,1,21,3.1V22.9a.3674.3674,0,0,0,.1.3.3042.3042,0,0,0,.4,0c.1-.1.2-.1.2-.2V6.2A2.6618,2.6618,0,1,1,27,5.7V22.8c0,.1,0,.4.2.5h.3a.3992.3992,0,0,0,.2-.4c.1-.7-.2-8.7,0-11.7a3.4714,3.4714,0,0,1,1-2.5,2.2725,2.2725,0,0,1,1.8-.5c1.6,0,2.6,1.1,2.6,3.1,0,5.2.1,10.4.1,15.6a6.1509,6.1509,0,0,0,.1,1.3,6.882,6.882,0,0,1,1.3-.2c3.6-.3,6.7.7,8.8,3.8a4.0534,4.0534,0,0,1,.5.9A10.6,10.6,0,0,1,45,38.5a5.8526,5.8526,0,0,1-.2,1.3A16.0536,16.0536,0,0,1,41,47.1,85.73,85.73,0,0,1,30.9,56a1.8548,1.8548,0,0,0-.7,1.2A33.1449,33.1449,0,0,0,30,61.7ZM15.8,37.3a11.7338,11.7338,0,0,0,3.1,7.9,59.9423,59.9423,0,0,0,9.9,8.9,1.1164,1.1164,0,0,0,1.6-.1,51.6985,51.6985,0,0,0,9.5-8.6,13.0743,13.0743,0,0,0,2.9-5.6,9.42,9.42,0,0,0-.5-6.4c-2.2-4.3-8.8-5.1-11.8-1.4-.6.8-1.2.9-2,.1A7.6774,7.6774,0,0,0,20,30.2C17.3,31.4,15.8,33.8,15.8,37.3Z"/></svg>